<?xml version="1.0" encoding="UTF-8"?>
<svg id="Layer_2" data-name="Layer 2" xmlns="http://www.w3.org/2000/svg" viewBox="0 0 191.79 122.15">
  <defs>
    <style>
      .letter {
        fill: #fff;
        <!-- filter: drop-shadow(2px 2px 4px rgba(0, 0, 0, 0.75)); -->
      }

      .cls-1 {
        fill: transparent;
      }

      .cls-2 {
        fill: none;
        opacity: 0;
        stroke: #000;
        stroke-miterlimit: 10;
        stroke-width: .1px;
      }
    </style>
  </defs>
  <g id="Layer_1-2" data-name="Layer 1">
    <g>
      <path class="letter" d="M161.25,61.18c.76-1.75,1.41-3.25,2.05-4.75,3.21,16.25,2.09,20.53-6.15,28.8,8.86,7.5,10.22,16.56,3.56,23.69-5.81,6.23-15.06,6.34-22.48-.94,2.7,.47,4.13,.42,5.29,.96,6.17,2.86,11.92,1.84,15.71-2.94,3.47-4.38,3.45-10.33-.07-14.75-3.88-4.88-9.44-5.86-15.68-2.87-1.08,.52-2.35,.63-3.53,.93-.17-.38-.35-.75-.52-1.13,.93-1.04,1.85-2.09,2.9-3.27-5.45-3.76-8.7-8.89-7.34-15.64,.62-3.07,2.29-6.35,4.45-8.61,5.55-5.81,13.66-5.43,21.8,.51Zm-23.52,10.34c.03,6.58,5.59,12.12,12.07,12.03,6.59-.09,12.06-5.61,12.02-12.14-.04-6.63-5.41-11.88-12.14-11.88-6.78,0-11.98,5.22-11.94,11.99Z"/>
      <path class="letter" d="M48.72,60.05c4.39-1.22,8.37-3.02,12.45-3.29,7-.45,13.26,4.47,14.31,11.36,.84,5.54,.44,11.28,.44,16.93,0,.6-1.02,1.2-1.56,1.81-.46-.09-.93-.18-1.39-.27,0-5.18,.16-10.36-.04-15.52-.26-6.5-5.22-11.32-11.5-11.53-6.69-.23-11.95,4.25-12.49,10.96-.32,3.97-.11,7.99-.23,11.98-.04,1.43-.37,2.84-.57,4.26-.54-.05-1.08-.1-1.62-.15V10.68q2.22,1.79,2.22,15.76v17.48c0,5.59,0,11.19,0,16.13Z"/>
      <path class="letter" d="M100.28,86.48v-29.57c.42-.16,.83-.31,1.25-.47,.65,1.4,1.3,2.81,1.67,3.6,4.08-1.1,8.34-2.98,12.71-3.25,6.48-.39,12.79,4.6,13.6,10.95,.78,6.15,.17,12.48-.95,19.13-.47-.91-1.31-1.8-1.34-2.72-.16-4.16,.04-8.33-.13-12.49-.29-7.23-5.15-12.09-11.93-12.15-6.96-.07-12.02,4.96-12.25,12.35-.13,3.99,.07,8-.1,11.99-.04,1.02-.9,2.02-1.38,3.02-.39-.13-.77-.27-1.16-.4Z"/>
      <path class="letter" d="M32.94,86.09c.58-.91,.88-1.83,1.5-2.28,4.62-3.32,5.01-6.17,1.23-10.51-1.96-2.24-4.32-4.18-6.01-6.6-3.25-4.64-1.54-8.73,4.24-10.4,.09,.66,.45,1.65,.21,1.84-5.09,3.79-2.44,6.83,.75,10.04,1.97,1.98,4.02,4.07,5.31,6.49,3.1,5.8-.5,11.66-7.23,11.43Z"/>
      <path class="letter" d="M95.49,58.01c-.91,.59-1.74,1.36-2.73,1.73-6.67,2.53-9.15,5.85-9.36,13.09-.13,4.56-.02,9.14-.02,14.61-3.33-3.22-3.82-26-1.19-31.51,.72,2.01,1.2,3.35,1.78,4.97,1.85-1.07,3.56-2.34,5.48-3.1,1.71-.68,3.63-.81,5.46-1.19,.2,.46,.39,.93,.59,1.39Z"/>
      <path class="cls-1" d="M137.73,71.52c-.03-6.77,5.16-11.99,11.94-11.99,6.73,0,12.1,5.25,12.14,11.88,.04,6.52-5.43,12.04-12.02,12.14-6.48,.09-12.03-5.45-12.07-12.03Z"/>
    </g>
    <rect class="cls-2" x=".05" y=".05" width="191.69" height="122.05" rx="12.93" ry="12.93"/>
  </g>
</svg>