<?xml version="1.0" encoding="UTF-8"?>
<svg id="Layer_2" data-name="Layer 2" xmlns="http://www.w3.org/2000/svg" viewBox="0 0 223.02 213.95">
  <defs>
    <style>
      .cls-1 {
        fill: transparent;
      }

      .cls-2 {
        fill: #000;
      }

      .lines {
        fill: transparent;
      }
    </style>
  </defs>
  <g id="Layer_1-2" data-name="Layer 1">
    <g>
      <path class="lines" d="M111.57,202.36c-26.33,0-52.67,.01-79,0-11.42,0-16.46-5.04-16.46-16.44,0-52.67,0-105.33,0-158,0-11.44,5.03-16.48,16.41-16.48,53,0,106,0,159,0,11.07,0,16.26,5.12,16.26,16.19,.02,52.83,.02,105.66,0,158.5,0,11.08-5.16,16.22-16.22,16.23-26.67,.02-53.33,0-80,0Zm.23-39.37c20.99,18.97,44.56,12.74,56.28,1.35,6.7-6.51,10.88-14.29,11.97-23.54,1.56-13.19-2.77-24.49-12.01-33.82,18.07-19.16,13.76-42.02,3.09-54.31-6.11-7.03-13.65-11.63-22.83-13.31-14.15-2.58-26.19,1.95-36.4,11.56-19.06-18.03-42.81-14-55.85-1.75-7.35,6.9-11.56,15.37-12.41,25.4-1.08,12.68,3.45,23.38,12.23,32.29-18.42,18.95-13.89,43.19-1.58,56.07,12.72,13.31,37.53,18.83,57.51,.05Z"/>
      <path class="cls-2" d="M111.79,163c-19.98,18.78-44.79,13.26-57.51-.05-12.31-12.88-16.85-37.12,1.58-56.07-8.79-8.92-13.31-19.61-12.23-32.29,.85-10.03,5.07-18.5,12.41-25.4,13.05-12.25,36.79-16.28,55.85,1.75,10.21-9.61,22.25-14.14,36.4-11.56,9.18,1.68,16.72,6.28,22.83,13.31,10.68,12.28,14.98,35.15-3.09,54.31,9.24,9.33,13.58,20.63,12.01,33.82-1.1,9.25-5.27,17.03-11.97,23.54-11.72,11.39-35.29,17.62-56.28-1.35Zm-12.73-84.01c-.12-.53-.24-1.06-.36-1.59-1.25,.2-2.95-.05-3.68,.67-12.34,12.16-24.85,24.17-36.72,36.78-9.29,9.87-10.4,25.05-3.77,36.76,6.82,12.05,20.28,18.38,33.83,16.07,10.28-1.75,17.77-7.48,23.39-16.37,1.02,1.44,1.76,2.53,2.56,3.58,8.57,11.27,23.34,15.99,36.58,11.71,13.28-4.29,21.96-15.8,22.44-29.9,.3-8.74-2.6-16.35-8.51-22.75-.62-.67-2.11-.53-3.2-.76,.13,.98,.15,2.01,.45,2.94,.19,.59,.82,1.03,1.23,1.55,9.95,12.73,8.23,30.11-3.98,40.28-11.93,9.94-30.04,8.4-40.49-3.46-6.79-7.7-6.62-16.79,.57-24.06,8.2-8.29,16.51-16.48,24.72-24.76,4.81-4.85,9.92-9.47,14.17-14.77,7.41-9.26,5.48-22.55-3.77-29.84-9.3-7.33-22.1-6.21-29.24,3.31,1.53,.24,3.17,.24,4.28-.52,8.66-5.98,18.68-5.07,25.18,2.43,6.26,7.23,6.05,17.43-1.26,24.84-13.89,14.08-28.14,27.82-40.54,40.04-6.12-5.3-12.62-11.03-19.26-16.6-.98-.82-2.6-.87-3.92-1.28,.55,1.33,.78,2.95,1.7,3.92,4.24,4.48,8.72,8.72,13.01,13.14,6.45,6.64,7.1,14.7,1.9,22.23-6.16,8.92-18.42,13.83-29.04,11.44-11.17-2.51-18.79-9.25-22.03-20.2-3.2-10.79-.48-20.46,7.44-28.46,12.06-12.18,24.23-24.25,36.36-36.36Zm18.29-23.15c.13,.61,.26,1.21,.38,1.82,1.34-.38,3-.39,3.98-1.21,7.24-6.04,15.5-8.44,24.69-6.6,11.23,2.25,18.83,9.08,22.11,20.05,3.23,10.79,.57,20.5-7.29,28.51-12.02,12.25-24.26,24.28-36.36,36.46-5.51,5.55-5.27,11.08,.53,16.32,9.38,8.46,22.67,8.42,31.05-.09,8.73-8.87,8.41-21.59-.96-31.44-.79,.73-1.59,1.46-2.42,2.23,.76,.99,1.38,1.78,1.98,2.57,5.96,7.9,5.31,17.92-1.6,24.45-6.95,6.58-17.55,6.62-24.95,.11-5.13-4.52-5.22-7.46-.26-12.43,11.65-11.68,23.34-23.32,34.99-35,13.33-13.37,13.6-33.61,.65-46.53-12.93-12.91-33.26-12.56-46.52,.79Zm22,38.87c.8-.34,1.6-.69,2.4-1.03-.23-1.2-.04-2.83-.76-3.55-12.34-12.4-24.36-25.16-37.33-36.87-12.74-11.5-32.53-9.94-44.31,2.36-11.5,12.01-11.96,31.68-.88,43.6,.83,.89,2.53,.98,3.83,1.44-.24-1.09-.14-2.44-.76-3.24-10.78-13.94-9.82-30.33,2.49-41.15,11.76-10.33,28.78-9.15,40.81,3.02,11.58,11.73,23.01,23.6,34.51,35.42Zm-32.56-8.35c-.15-.54-.29-1.08-.44-1.61-1.25,.2-2.95-.06-3.69,.67-12.09,11.92-24.3,23.73-35.97,36.04-8.1,8.55-7.38,21.69,.79,29.77,8.29,8.19,21.38,8.4,30.27,.5,5.68-5.06,6.39-10.93,1.31-16.58-4.86-5.4-10.28-10.3-15.74-15.7-.83,.76-1.55,1.42-2.8,2.57,5.35,5.14,10.43,9.69,15.11,14.61,4.82,5.07,4.41,8.48-1.02,12.95-5.48,4.51-11.67,5.53-18.23,3.02-12.49-4.78-15.61-20.04-5.96-29.91,11.98-12.25,24.24-24.23,36.37-36.32Zm-10.44,19.65c5.5,5.74,10.52,11,15.31,16,5.15-5.17,10.28-10.32,15.01-15.07-4.71-4.88-9.76-10.11-14.96-15.5-.68,.6-1.42,1.23-2.12,1.9-4.56,4.36-9.12,8.72-13.25,12.67Zm-27.94-12.02q2.22-2.08,.32-4.67c-6.61-8.99-4.63-20.78,4.48-26.64,7.28-4.69,16.37-3.53,23.23,3.2,11.3,11.08,22.5,22.26,33.74,33.4,1.52,1.5,3.04,3.61,4.15,1.2-12.78-13.33-24.81-26.71-37.77-39.12-8.52-8.16-22.34-6.48-30.01,2.24-7.97,9.06-7.18,21.95,1.86,30.39Zm22.58-23.42c-5.14-4.96-12.1-5.01-16.6,.2-4.1,4.75-3.34,11.45,1.25,15.11,5.16-5.14,10.26-10.23,15.35-15.31Zm-.18,72.85c-5.26-5.36-10.29-10.5-15.31-15.63-4.62,4.53-5.08,10.94-.86,15.52,4.49,4.88,11.19,4.76,16.18,.1Zm41.91-72.77c5.11,5.14,10.23,10.28,15.36,15.44,4.98-4.37,5.46-11.08,.89-15.81-4.65-4.81-11.24-4.53-16.25,.37Zm15.23,56.96c-5.14,5.14-10.27,10.27-15.4,15.4,5.33,5.13,12.26,5.25,16.78,.11,4.23-4.81,3.6-11.23-1.38-15.51Z"/>
      <path class="lines" d="M99.06,78.98c-12.13,12.11-24.3,24.18-36.36,36.36-7.92,8-10.63,17.67-7.44,28.46,3.24,10.96,10.86,17.7,22.03,20.2,10.62,2.38,22.88-2.53,29.04-11.44,5.2-7.53,4.55-15.59-1.9-22.23-4.3-4.42-8.78-8.67-13.01-13.14-.92-.97-1.15-2.6-1.7-3.92,1.32,.41,2.95,.46,3.92,1.28,6.64,5.56,13.14,11.29,19.26,16.6,12.41-12.22,26.65-25.96,40.54-40.04,7.32-7.42,7.52-17.62,1.26-24.84-6.5-7.5-16.52-8.41-25.18-2.43-1.11,.77-2.75,.76-4.28,.52,7.14-9.52,19.94-10.64,29.24-3.31,9.25,7.29,11.18,20.58,3.77,29.84-4.24,5.31-9.36,9.93-14.17,14.77-8.21,8.28-16.52,16.47-24.72,24.76-7.18,7.26-7.35,16.36-.57,24.06,10.46,11.85,28.56,13.4,40.49,3.46,12.21-10.17,13.93-27.55,3.98-40.28-.41-.52-1.04-.96-1.23-1.55-.3-.93-.31-1.95-.45-2.94,1.09,.23,2.58,.09,3.2,.76,5.91,6.4,8.82,14.01,8.51,22.75-.49,14.09-9.16,25.61-22.44,29.9-13.25,4.28-28.01-.44-36.58-11.71-.8-1.05-1.53-2.14-2.56-3.58-5.61,8.89-13.11,14.62-23.39,16.37-13.55,2.31-27.01-4.02-33.83-16.07-6.63-11.71-5.52-26.89,3.77-36.76,11.87-12.61,24.38-24.62,36.72-36.78,.73-.72,2.43-.47,3.68-.67,.12,.53,.24,1.06,.36,1.59Z"/>
      <path class="lines" d="M117.35,55.83c13.26-13.35,33.59-13.7,46.52-.79,12.95,12.93,12.68,33.17-.65,46.53-11.65,11.68-23.34,23.32-34.99,35-4.96,4.98-4.87,7.91,.26,12.43,7.4,6.51,18,6.47,24.95-.11,6.9-6.53,7.56-16.56,1.6-24.45-.6-.8-1.21-1.58-1.98-2.57,.84-.77,1.63-1.5,2.42-2.23,9.37,9.85,9.69,22.57,.96,31.44-8.38,8.51-21.67,8.55-31.05,.09-5.8-5.23-6.04-10.77-.53-16.32,12.1-12.18,24.34-24.2,36.36-36.46,7.86-8.01,10.52-17.71,7.29-28.51-3.28-10.97-10.88-17.8-22.11-20.05-9.18-1.84-17.44,.56-24.69,6.6-.98,.82-2.63,.83-3.98,1.21-.13-.61-.26-1.21-.38-1.82Z"/>
      <path class="lines" d="M139.35,94.71c-11.5-11.81-22.93-23.69-34.51-35.42-12.03-12.17-29.05-13.35-40.81-3.02-12.31,10.82-13.27,27.21-2.49,41.15,.62,.8,.52,2.14,.76,3.24-1.3-.46-3-.54-3.83-1.44-11.08-11.92-10.62-31.59,.88-43.6,11.78-12.3,31.57-13.87,44.31-2.36,12.97,11.71,24.99,24.47,37.33,36.87,.72,.72,.53,2.34,.76,3.55-.8,.34-1.6,.69-2.4,1.03Z"/>
      <path class="lines" d="M106.79,86.36c-12.14,12.1-24.4,24.07-36.37,36.32-9.64,9.86-6.52,25.13,5.96,29.91,6.56,2.51,12.75,1.5,18.23-3.02,5.43-4.47,5.84-7.88,1.02-12.95-4.68-4.93-9.76-9.48-15.11-14.61,1.25-1.15,1.97-1.8,2.8-2.57,5.46,5.4,10.89,10.3,15.74,15.7,5.08,5.65,4.38,11.52-1.31,16.58-8.88,7.91-21.98,7.69-30.27-.5-8.18-8.08-8.9-21.22-.79-29.77,11.67-12.32,23.88-24.13,35.97-36.04,.73-.72,2.44-.47,3.69-.67,.15,.54,.29,1.08,.44,1.61Z"/>
      <path class="lines" d="M96.35,106.01c4.13-3.95,8.68-8.31,13.25-12.67,.7-.67,1.44-1.29,2.12-1.9,5.2,5.39,10.25,10.61,14.96,15.5-4.73,4.75-9.86,9.89-15.01,15.07-4.79-5.01-9.82-10.26-15.31-16Z"/>
      <path class="lines" d="M68.41,94c-9.04-8.45-9.83-21.33-1.86-30.39,7.67-8.73,21.48-10.4,30.01-2.24,12.96,12.41,24.99,25.79,37.77,39.12-1.11,2.4-2.64,.3-4.15-1.2-11.24-11.14-22.44-22.32-33.74-33.4-6.86-6.73-15.94-7.89-23.23-3.2-9.11,5.86-11.09,17.65-4.48,26.64q1.9,2.59-.32,4.67Z"/>
      <path class="lines" d="M90.99,70.57c-5.09,5.08-10.2,10.17-15.35,15.31-4.59-3.66-5.35-10.36-1.25-15.11,4.5-5.21,11.46-5.16,16.6-.2Z"/>
      <path class="lines" d="M90.81,143.43c-4.99,4.65-11.69,4.78-16.18-.1-4.22-4.58-3.76-10.99,.86-15.52,5.03,5.13,10.05,10.26,15.31,15.63Z"/>
      <path class="lines" d="M132.72,70.66c5.01-4.9,11.6-5.18,16.25-.37,4.57,4.73,4.1,11.44-.89,15.81-5.13-5.16-10.25-10.3-15.36-15.44Z"/>
      <path class="lines" d="M147.96,127.62c4.97,4.28,5.6,10.7,1.38,15.51-4.51,5.14-11.45,5.02-16.78-.11,5.13-5.13,10.26-10.26,15.4-15.4Z"/>
    </g>
    <rect class="cls-1" width="223.02" height="213.95" rx="17.25" ry="17.25"/>
  </g>
</svg>